<?xml version="1.0" encoding="UTF-8"?>
<svg id="Layer_1" xmlns="http://www.w3.org/2000/svg" version="1.1" viewBox="0 0 149 26">
  <!-- Generator: Adobe Illustrator 29.4.0, SVG Export Plug-In . SVG Version: 2.1.0 Build 152)  -->
  <defs>
    <style>
      .st0 {
        fill: #007aff;
      }

      .st0, .st1 {
        fill-rule: evenodd;
      }

      .st1 {
        fill: #041d34;
      }
    </style>
  </defs>
  <path class="st1" d="M77.9,13c0,4.6,3.2,8,8,8s7.9-3.2,7.9-8-3.3-8-7.9-8-8,3.4-8,8ZM90.6,13c0,2.9-2,5.1-4.7,5.1s-4.8-2.3-4.8-5.1,2-5.1,4.8-5.1,4.7,2.2,4.7,5.1ZM144.4,6.8c0,1,.8,1.8,1.8,1.8s1.8-.8,1.8-1.8-.8-1.8-1.8-1.8-1.8.8-1.8,1.8ZM144.8,10.1v10.7h2.9v-10.7h-2.9ZM142.7,10.1h-2.9v1.2h0c-.8-.9-1.9-1.4-3.1-1.4-2.9,0-5.1,2.3-5.1,5.6s2.2,5.5,5.1,5.5,2.5-.5,3.2-1.5h0v1.3h2.7v-10.7ZM139.9,15.5c0,1.8-1.2,2.9-2.7,2.9s-2.8-1.2-2.8-2.9,1.2-3,2.8-3,2.7,1.3,2.7,3ZM128.6,21c-1,0-1.8-.8-1.8-1.7s.8-1.8,1.8-1.8,1.8.8,1.8,1.8-.8,1.7-1.8,1.7ZM127.6,9.9s-.1,0-.2,0c-1.3,0-2.4.6-3.3,1.8h0v-1.6h-2.9v10.7h2.9v-5c0-1.6,1-2.8,2.8-2.8s.5,0,.7,0v-3.1ZM119.8,15.3c0,.4,0,.9,0,1h-7.5c.4,1.3,1.4,2.1,2.8,2.1,1.1,0,2-.5,2.6-1.2l1.9,1.7c-.9,1.2-2.5,2-4.6,2-3.1,0-5.5-2.2-5.5-5.6s2.3-5.5,5.3-5.5,5.3,2.3,5.3,5.4ZM114.6,12.4c-1.2,0-2.1.6-2.4,1.9h4.7c-.3-1.1-1.1-1.9-2.3-1.9ZM103.3,17.4c0,2.4,1.2,3.6,3.1,3.6s2.2-.3,2.9-.7l-.7-2.3c-.5.2-1,.4-1.4.4-.7,0-.9-.4-.9-1.4v-4.6h2.9v-2.4h-2.9v-3.8l-2.9.3v3.5h-1.3v2.4h1.3v5ZM98.8,21c-1.8,0-3.1-1.1-3.1-3.6v-5h-1.3v-2.4h1.3v-3.5l2.9-.3v3.8h2.9v2.4h-2.9v4.6c0,.9.3,1.4.9,1.4s.9-.1,1.4-.4l.7,2.3c-.7.4-1.4.7-2.9.7Z"/>
  <path class="st0" d="M19.3,12.9c0,3.5-2.8,6.3-6.3,6.3s-6.3-2.8-6.3-6.3,2.8-6.3,6.3-6.3,6.3,2.8,6.3,6.3ZM0,13c0,7.2,5.8,13,13,13s13-5.8,13-13S20.2,0,13,0,0,5.8,0,13ZM32.4.4c2,0,3.6,1.6,3.6,3.6v18.2c0,2-1.6,3.6-3.6,3.6s-3.6-1.6-3.6-3.6V3.9c0-2,1.6-3.6,3.6-3.6ZM42.4.4c2,0,3.6,1.6,3.6,3.6v18.2c0,2-1.6,3.6-3.6,3.6s-3.6-1.6-3.6-3.6V3.9c0-2,1.6-3.6,3.6-3.6ZM55.9,12.1c0-2-1.6-3.6-3.6-3.6s-3.6,1.6-3.6,3.6v2.1c0,2,1.6,3.6,3.6,3.6s3.6-1.6,3.6-3.6v-2.1ZM62.3,5c2,0,3.6,1.6,3.6,3.6v8.9c0,2-1.6,3.6-3.6,3.6s-3.6-1.6-3.6-3.6v-8.9c0-2,1.6-3.6,3.6-3.6Z"/>
</svg>